/* XPM */
static char * clear_xpm[] = {
"20 20 119 2",
"  	c None",
". 	c #A26C18",
"+ 	c #AC7010",
"@ 	c #BC8C3D",
"# 	c #97610A",
"$ 	c #DBC8AA",
"% 	c #9C650F",
"& 	c #C59443",
"* 	c #BE7A0E",
"= 	c #BF8E40",
"- 	c #A17022",
"; 	c #C78B2A",
"> 	c #C6903A",
", 	c #9A6615",
"' 	c #A16F20",
") 	c #AE7218",
"! 	c #BB9426",
"~ 	c #EBD96E",
"{ 	c #D5B930",
"] 	c #CBAC27",
"^ 	c #FBED81",
"/ 	c #FFF886",
"( 	c #D4B847",
"_ 	c #C29D00",
": 	c #DAC42C",
"< 	c #EEDB44",
"[ 	c #FFF971",
"} 	c #AA763D",
"| 	c #981B0D",
"1 	c #953D00",
"2 	c #CFB02F",
"3 	c #983516",
"4 	c #A60000",
"5 	c #940F08",
"6 	c #D2A544",
"7 	c #DDC53A",
"8 	c #640000",
"9 	c #730000",
"0 	c #C07A34",
"a 	c #EFDB6C",
"b 	c #FDE84B",
"c 	c #F3DD2E",
"d 	c #E1CD46",
"e 	c #CDAD18",
"f 	c #904600",
"g 	c #DCBE3C",
"h 	c #FFEE46",
"i 	c #F8E55D",
"j 	c #FBE652",
"k 	c #EFD527",
"l 	c #DDC305",
"m 	c #E1CF47",
"n 	c #C6A403",
"o 	c #E9D632",
"p 	c #F0D728",
"q 	c #F9E344",
"r 	c #F3DB40",
"s 	c #F6DE33",
"t 	c #E2CA1B",
"u 	c #D7BF1D",
"v 	c #E0CD3A",
"w 	c #D7C155",
"x 	c #C5A204",
"y 	c #DFC923",
"z 	c #E9D21B",
"A 	c #EBD226",
"B 	c #EED32C",
"C 	c #F0D72B",
"D 	c #DEC523",
"E 	c #DAC10E",
"F 	c #D5BB14",
"G 	c #DDC727",
"H 	c #D3B937",
"I 	c #DFCB39",
"J 	c #D8BF04",
"K 	c #E6CD19",
"L 	c #EDD525",
"M 	c #E3C923",
"N 	c #EAD633",
"O 	c #D2B614",
"P 	c #DDC928",
"Q 	c #D8C232",
"R 	c #D7BF0F",
"S 	c #E5D476",
"T 	c #DDC847",
"U 	c #D2B700",
"V 	c #DBC209",
"W 	c #D7BA10",
"X 	c #E8D026",
"Y 	c #D8BB08",
"Z 	c #E0CE43",
"` 	c #D2B600",
" .	c #E4D44C",
"..	c #D2B836",
"+.	c #C29E00",
"@.	c #CEB01D",
"#.	c #DDC813",
"$.	c #D0B300",
"%.	c #E0CC31",
"&.	c #CFB005",
"*.	c #D6BD2B",
"=.	c #DBC414",
"-.	c #E0CE5C",
";.	c #C8A80E",
">.	c #DAC318",
",.	c #D7BF1A",
"'.	c #D7BF10",
").	c #DAC437",
"!.	c #E3D24D",
"~.	c #C7A81D",
"{.	c #AC900B",
"].	c #E0CC4B",
"^.	c #E0CD30",
"/.	c #D3B717",
"(.	c #E6D66D",
"_.	c #AD8900",
":.	c #DDC94F",
"<.	c #CBB028",
"[.	c #7F6000",
"                                        ",
"    . + @                               ",
"    # $ %                               ",
"      & * =                             ",
"      - ; > ,                           ",
"        ' ) ! ~ {                       ",
"          ] ^ / (                       ",
"      _ : < [ } | 1                     ",
"          2 3 4 5 6 7                   ",
"          8 9 0 a b c d e               ",
"          f g h i j k l m               ",
"          n o p q r s t u v w           ",
"          x y z A B C D E F G H         ",
"            I J K L M N O P Q R S       ",
"            T U V W X Y Z `  ...+.      ",
"            @.#.$.%.&.*.=.-.;.          ",
"              >.,.'.).!.~.{.            ",
"              ].^./.(.                  ",
"              _.:.<.[.                  ",
"                                        "};
